<?xml version="1.0" encoding="utf-8"?>
<!-- Generator: Adobe Illustrator 26.0.3, SVG Export Plug-In . SVG Version: 6.00 Build 0)  -->
<svg version="1.1" id="Layer_1" xmlns="http://www.w3.org/2000/svg" xmlns:xlink="http://www.w3.org/1999/xlink" x="0px" y="0px"
	 viewBox="0 0 24 24" style="enable-background:new 0 0 24 24;" xml:space="preserve">
<style type="text/css">
	.st0{fill:#FF009C;}
</style>
<path class="st0" d="M22.5,6h-21C0.7,6,0,5.3,0,4.5v-1C0,2.7,0.7,2,1.5,2h21C23.3,2,24,2.7,24,3.5v1C24,5.3,23.3,6,22.5,6z M22.5,10
	h-21C0.7,10,0,10.7,0,11.5v1C0,13.3,0.7,14,1.5,14h21c0.8,0,1.5-0.7,1.5-1.5v-1C24,10.7,23.3,10,22.5,10z M22.5,18h-21
	C0.7,18,0,18.7,0,19.5v1C0,21.3,0.7,22,1.5,22h21c0.8,0,1.5-0.7,1.5-1.5v-1C24,18.7,23.3,18,22.5,18z"/>
</svg>
